<mxfile host="app.diagrams.net" modified="2020-05-14T20:55:08.562Z" agent="5.0 (Macintosh; Intel Mac OS X 10_15_1) AppleWebKit/537.36 (KHTML, like Gecko) Chrome/81.0.4044.138 Safari/537.36" etag="sVvYn29cXdCUPAzByxtf" version="13.0.9" type="github">
  <diagram id="GtFj_nBtKl22lhemutQv" name="Page-1">
    <mxGraphModel dx="1226" dy="1131" grid="1" gridSize="10" guides="1" tooltips="1" connect="1" arrows="1" fold="1" page="1" pageScale="1" pageWidth="2400" pageHeight="1200" math="0" shadow="0">
      <root>
        <mxCell id="0" />
        <mxCell id="1" parent="0" />
        <mxCell id="nWlWyldOQwH3dzwcek6U-1" value="EDF" style="ellipse;whiteSpace=wrap;html=1;aspect=fixed;" parent="1" vertex="1">
          <mxGeometry x="360" y="500" width="80" height="80" as="geometry" />
        </mxCell>
        <mxCell id="nWlWyldOQwH3dzwcek6U-2" value="Daimler" style="ellipse;whiteSpace=wrap;html=1;aspect=fixed;" parent="1" vertex="1">
          <mxGeometry x="720" y="440" width="80" height="80" as="geometry" />
        </mxCell>
        <mxCell id="nWlWyldOQwH3dzwcek6U-3" value="FMS" style="ellipse;whiteSpace=wrap;html=1;aspect=fixed;" parent="1" vertex="1">
          <mxGeometry x="720" y="680" width="80" height="80" as="geometry" />
        </mxCell>
        <mxCell id="nWlWyldOQwH3dzwcek6U-4" value="Non-FMS" style="ellipse;whiteSpace=wrap;html=1;aspect=fixed;" parent="1" vertex="1">
          <mxGeometry x="720" y="560" width="80" height="80" as="geometry" />
        </mxCell>
        <mxCell id="nWlWyldOQwH3dzwcek6U-5" value="IS_FMS&lt;br&gt;IS_DAIMLER" style="endArrow=classic;html=1;entryX=0;entryY=0.5;entryDx=0;entryDy=0;exitX=1;exitY=0.5;exitDx=0;exitDy=0;edgeStyle=entityRelationEdgeStyle;" parent="1" source="nWlWyldOQwH3dzwcek6U-1" target="nWlWyldOQwH3dzwcek6U-3" edge="1">
          <mxGeometry x="0.1267" y="5" width="50" height="50" relative="1" as="geometry">
            <mxPoint x="420" y="720" as="sourcePoint" />
            <mxPoint x="470" y="670" as="targetPoint" />
            <mxPoint as="offset" />
          </mxGeometry>
        </mxCell>
        <mxCell id="nWlWyldOQwH3dzwcek6U-6" value="Daimler" style="ellipse;whiteSpace=wrap;html=1;aspect=fixed;" parent="1" vertex="1">
          <mxGeometry x="720" y="320" width="80" height="80" as="geometry" />
        </mxCell>
        <mxCell id="nWlWyldOQwH3dzwcek6U-9" value="IS_FMS&lt;br&gt;IS_DAIMLER" style="endArrow=classic;html=1;entryX=0;entryY=0.5;entryDx=0;entryDy=0;edgeStyle=entityRelationEdgeStyle;exitX=1;exitY=0.5;exitDx=0;exitDy=0;" parent="1" source="nWlWyldOQwH3dzwcek6U-1" target="nWlWyldOQwH3dzwcek6U-6" edge="1">
          <mxGeometry x="0.1635" y="3" width="50" height="50" relative="1" as="geometry">
            <mxPoint x="600" y="540" as="sourcePoint" />
            <mxPoint x="730" y="490" as="targetPoint" />
            <mxPoint as="offset" />
          </mxGeometry>
        </mxCell>
        <mxCell id="nWlWyldOQwH3dzwcek6U-10" value="IS_FMS&lt;br&gt;IS_DAIMLER" style="endArrow=classic;html=1;entryX=0;entryY=0.5;entryDx=0;entryDy=0;exitX=1;exitY=0.5;exitDx=0;exitDy=0;edgeStyle=entityRelationEdgeStyle;" parent="1" source="nWlWyldOQwH3dzwcek6U-1" target="nWlWyldOQwH3dzwcek6U-4" edge="1">
          <mxGeometry x="0.1522" y="-4" width="50" height="50" relative="1" as="geometry">
            <mxPoint x="610" y="550" as="sourcePoint" />
            <mxPoint x="730" y="490" as="targetPoint" />
            <mxPoint as="offset" />
          </mxGeometry>
        </mxCell>
        <mxCell id="nWlWyldOQwH3dzwcek6U-12" value="IS_FMS&lt;br&gt;IS_DAIMLER" style="endArrow=classic;html=1;entryX=0;entryY=0.5;entryDx=0;entryDy=0;edgeStyle=entityRelationEdgeStyle;exitX=1;exitY=0.5;exitDx=0;exitDy=0;" parent="1" source="nWlWyldOQwH3dzwcek6U-1" target="nWlWyldOQwH3dzwcek6U-2" edge="1">
          <mxGeometry x="0.1522" y="4" width="50" height="50" relative="1" as="geometry">
            <mxPoint x="450" y="550" as="sourcePoint" />
            <mxPoint x="730" y="370" as="targetPoint" />
            <mxPoint as="offset" />
          </mxGeometry>
        </mxCell>
      </root>
    </mxGraphModel>
  </diagram>
</mxfile>
